<svg width="124" height="54" viewBox="0 0 124 54" fill="none" xmlns="http://www.w3.org/2000/svg">
<path d="M4.648 0.639999L8.2 10.816L11.752 0.639999H15.656L9.928 14.72V24H6.408V14.72L0.68 0.639999H4.648ZM26.0638 3.552C27.5571 1.376 29.5731 0.298665 32.1118 0.32C34.6504 0.32 36.6664 1.408 38.1597 3.584C39.6531 5.73867 40.3998 8.65067 40.3998 12.32C40.3998 15.9893 39.6531 18.912 38.1597 21.088C36.6664 23.2427 34.6504 24.32 32.1118 24.32C29.5731 24.32 27.5464 23.2427 26.0318 21.088C24.5384 18.912 23.7918 15.9893 23.7918 12.32C23.7918 8.65067 24.5491 5.728 26.0638 3.552ZM28.6238 18.432C29.4984 19.8827 30.6611 20.6187 32.1118 20.64C33.5624 20.64 34.7251 19.9147 35.5998 18.464C36.4744 16.992 36.9118 14.944 36.9118 12.32C36.9118 9.696 36.4744 7.65867 35.5998 6.208C34.7251 4.736 33.5624 4 32.1118 4C30.6611 4 29.4984 4.736 28.6238 6.208C27.7491 7.65867 27.3118 9.696 27.3118 12.32C27.3118 14.944 27.7491 16.9813 28.6238 18.432ZM48.6198 16.416V13.024H56.1718V16.416H48.6198ZM76.963 0.639999V4.352H72.323V24H68.803V4.352H64.163V0.639999H76.963ZM85.1228 24L90.8828 0.639999H94.4348L100.195 24H96.5468L95.3628 18.368H89.8908L88.6748 24H85.1228ZM90.6267 14.944H94.5628L92.6108 5.024L90.6267 14.944ZM7.719 36.071C6.369 36.071 5.28 36.71 4.452 37.988C3.624 39.248 3.21 40.967 3.21 43.145C3.21 45.305 3.642 47.024 4.506 48.302C5.37 49.58 6.441 50.219 7.719 50.219C8.835 50.219 9.987 49.724 11.175 48.734L12.066 51.515C10.734 52.667 9.213 53.252 7.503 53.27C5.325 53.27 3.57 52.361 2.238 50.543C0.924 48.707 0.267 46.241 0.267 43.145C0.267 40.031 0.915 37.565 2.211 35.747C3.507 33.929 5.271 33.02 7.503 33.02C9.213 33.02 10.734 33.605 12.066 34.775L11.175 37.556C9.987 36.566 8.835 36.071 7.719 36.071ZM28.5664 44.063H23.2474V53H20.3314V33.29H23.2474V41.174H28.5664V33.29H31.4824V53H28.5664V44.063ZM39.1329 53L43.9929 33.29H46.9899L51.8499 53H48.7719L47.7729 48.248H43.1559L42.1299 53H39.1329ZM43.7769 45.359H47.0979L45.4509 36.989L43.7769 45.359ZM59.4603 53V33.29H62.2683L67.7493 46.25V33.29H70.6113V53H67.8033L62.3223 40.04V53H59.4603ZM79.3148 53V33.29H82.1228L87.6038 46.25V33.29H90.4658V53H87.6578L82.1768 40.04V53H79.3148ZM101.572 36.341V41.174H107.08V44.063H101.572V49.949H107.485V53H98.6833V33.29H107.485V36.341H101.572ZM117.924 33.29V49.868H123.972V53H114.927V33.29H117.924Z" fill="black"/>
</svg>
